<svg width="85" height="85" viewBox="0 0 85 85" fill="none" xmlns="http://www.w3.org/2000/svg">
<path d="M78.1203 78.2001H57.8C57.043 78.2001 56.3789 77.702 56.1664 76.9715L42.4336 29.6637L34.6176 54.4001H48.5031C49.1937 54.4001 49.8113 54.8118 50.0769 55.4493C50.3426 56.0868 50.1965 56.8172 49.7051 57.302L28.4019 77.702C28.0832 78.0208 27.6516 78.2001 27.2 78.2001H6.87968C6.33515 78.2001 5.82382 77.9411 5.50507 77.5028C5.18632 77.0579 5.09335 76.4934 5.26601 75.9754L27.2797 7.97544C27.5121 7.27153 28.1629 6.80005 28.9 6.80005H56.1C56.8371 6.80005 57.4879 7.27153 57.7137 7.97544L79.734 75.9754C79.9066 76.4934 79.8137 77.0579 79.4949 77.5028C79.1762 77.9411 78.6648 78.2001 78.1203 78.2001Z" fill="#06050F"/>
</svg>
